<mxfile host="app.diagrams.net" agent="Mozilla/5.0 (Windows NT 10.0; Win64; x64) AppleWebKit/537.36 (KHTML, like Gecko) Chrome/130.0.0.0 Safari/537.36 Edg/130.0.0.0" version="24.8.3">
  <diagram name="Sivu-1" id="DKVlh65TpENHnzQx6VIp">
    <mxGraphModel dx="828" dy="869" grid="1" gridSize="10" guides="1" tooltips="1" connect="1" arrows="1" fold="1" page="1" pageScale="1" pageWidth="827" pageHeight="1169" math="0" shadow="0">
      <root>
        <mxCell id="0" />
        <mxCell id="1" parent="0" />
        <mxCell id="c5XPexKBqOf_Pcfm_mN--3" value="" style="edgeStyle=orthogonalEdgeStyle;rounded=0;orthogonalLoop=1;jettySize=auto;html=1;" edge="1" parent="1" source="c5XPexKBqOf_Pcfm_mN--1" target="c5XPexKBqOf_Pcfm_mN--2">
          <mxGeometry relative="1" as="geometry" />
        </mxCell>
        <mxCell id="c5XPexKBqOf_Pcfm_mN--1" value="Aloitus" style="ellipse;whiteSpace=wrap;html=1;" vertex="1" parent="1">
          <mxGeometry x="353" y="10" width="120" height="80" as="geometry" />
        </mxCell>
        <mxCell id="c5XPexKBqOf_Pcfm_mN--5" value="" style="edgeStyle=orthogonalEdgeStyle;rounded=0;orthogonalLoop=1;jettySize=auto;html=1;" edge="1" parent="1" source="c5XPexKBqOf_Pcfm_mN--2" target="c5XPexKBqOf_Pcfm_mN--4">
          <mxGeometry relative="1" as="geometry" />
        </mxCell>
        <mxCell id="c5XPexKBqOf_Pcfm_mN--2" value="Var luku" style="rounded=0;whiteSpace=wrap;html=1;" vertex="1" parent="1">
          <mxGeometry x="353" y="120" width="120" height="60" as="geometry" />
        </mxCell>
        <mxCell id="c5XPexKBqOf_Pcfm_mN--9" value="" style="edgeStyle=orthogonalEdgeStyle;rounded=0;orthogonalLoop=1;jettySize=auto;html=1;" edge="1" parent="1" source="c5XPexKBqOf_Pcfm_mN--4" target="c5XPexKBqOf_Pcfm_mN--8">
          <mxGeometry relative="1" as="geometry" />
        </mxCell>
        <mxCell id="c5XPexKBqOf_Pcfm_mN--4" value="Anna&lt;div&gt;luku&lt;/div&gt;" style="shape=parallelogram;perimeter=parallelogramPerimeter;whiteSpace=wrap;html=1;fixedSize=1;" vertex="1" parent="1">
          <mxGeometry x="354" y="220" width="120" height="60" as="geometry" />
        </mxCell>
        <mxCell id="c5XPexKBqOf_Pcfm_mN--8" value="" style="rounded=0;whiteSpace=wrap;html=1;" vertex="1" parent="1">
          <mxGeometry x="353" y="320" width="120" height="60" as="geometry" />
        </mxCell>
      </root>
    </mxGraphModel>
  </diagram>
</mxfile>
